<svg width="131" height="44" viewBox="0 0 131 44" fill="none" xmlns="http://www.w3.org/2000/svg">
<rect width="131" height="44" rx="22" fill="#F22539"/>
<path d="M32.4397 22.475V27.74C31.7797 28.226 31.0747 28.583 30.3247 28.811C29.5807 29.033 28.7827 29.144 27.9307 29.144C26.8687 29.144 25.9057 28.979 25.0417 28.649C24.1837 28.319 23.4487 27.86 22.8367 27.272C22.2307 26.684 21.7627 25.982 21.4327 25.166C21.1027 24.35 20.9377 23.459 20.9377 22.493C20.9377 21.515 21.0967 20.618 21.4147 19.802C21.7327 18.986 22.1827 18.284 22.7647 17.696C23.3527 17.108 24.0637 16.652 24.8977 16.328C25.7317 16.004 26.6677 15.842 27.7057 15.842C28.2337 15.842 28.7257 15.884 29.1817 15.968C29.6437 16.052 30.0697 16.169 30.4597 16.319C30.8557 16.463 31.2157 16.64 31.5397 16.85C31.8637 17.06 32.1607 17.291 32.4307 17.543L31.7377 18.641C31.6297 18.815 31.4887 18.923 31.3147 18.965C31.1407 19.001 30.9517 18.956 30.7477 18.83C30.5497 18.716 30.3517 18.602 30.1537 18.488C29.9557 18.374 29.7337 18.275 29.4877 18.191C29.2477 18.107 28.9747 18.038 28.6687 17.984C28.3687 17.93 28.0207 17.903 27.6247 17.903C26.9827 17.903 26.4007 18.011 25.8787 18.227C25.3627 18.443 24.9217 18.752 24.5557 19.154C24.1897 19.556 23.9077 20.039 23.7097 20.603C23.5117 21.167 23.4127 21.797 23.4127 22.493C23.4127 23.237 23.5177 23.903 23.7277 24.491C23.9437 25.073 24.2437 25.568 24.6277 25.976C25.0177 26.378 25.4857 26.687 26.0317 26.903C26.5777 27.113 27.1867 27.218 27.8587 27.218C28.3387 27.218 28.7677 27.167 29.1457 27.065C29.5237 26.963 29.8927 26.825 30.2527 26.651V24.293H28.6147C28.4587 24.293 28.3357 24.251 28.2457 24.167C28.1617 24.077 28.1197 23.969 28.1197 23.843V22.475H32.4397ZM40.2648 23.321C40.2648 23.033 40.2228 22.763 40.1388 22.511C40.0608 22.253 39.9408 22.028 39.7788 21.836C39.6168 21.644 39.4098 21.494 39.1578 21.386C38.9118 21.272 38.6238 21.215 38.2938 21.215C37.6518 21.215 37.1448 21.398 36.7728 21.764C36.4068 22.13 36.1728 22.649 36.0708 23.321H40.2648ZM36.0258 24.662C36.0618 25.136 36.1458 25.547 36.2778 25.895C36.4098 26.237 36.5838 26.522 36.7998 26.75C37.0158 26.972 37.2708 27.14 37.5648 27.254C37.8648 27.362 38.1948 27.416 38.5548 27.416C38.9148 27.416 39.2238 27.374 39.4818 27.29C39.7458 27.206 39.9738 27.113 40.1658 27.011C40.3638 26.909 40.5348 26.816 40.6788 26.732C40.8288 26.648 40.9728 26.606 41.1108 26.606C41.2968 26.606 41.4348 26.675 41.5248 26.813L42.1638 27.623C41.9178 27.911 41.6418 28.154 41.3358 28.352C41.0298 28.544 40.7088 28.7 40.3728 28.82C40.0428 28.934 39.7038 29.015 39.3558 29.063C39.0138 29.111 38.6808 29.135 38.3568 29.135C37.7148 29.135 37.1178 29.03 36.5658 28.82C36.0138 28.604 35.5338 28.289 35.1258 27.875C34.7178 27.455 34.3968 26.939 34.1628 26.327C33.9288 25.709 33.8118 24.995 33.8118 24.185C33.8118 23.555 33.9138 22.964 34.1178 22.412C34.3218 21.854 34.6128 21.371 34.9908 20.963C35.3748 20.549 35.8398 20.222 36.3858 19.982C36.9378 19.742 37.5588 19.622 38.2488 19.622C38.8308 19.622 39.3678 19.715 39.8598 19.901C40.3518 20.087 40.7748 20.36 41.1288 20.72C41.4828 21.074 41.7588 21.512 41.9568 22.034C42.1608 22.55 42.2628 23.141 42.2628 23.807C42.2628 24.143 42.2268 24.371 42.1548 24.491C42.0828 24.605 41.9448 24.662 41.7408 24.662H36.0258ZM46.9211 29.144C46.1171 29.144 45.4991 28.919 45.0671 28.469C44.6411 28.013 44.4281 27.386 44.4281 26.588V21.431H43.4831C43.3631 21.431 43.2611 21.392 43.1771 21.314C43.0931 21.236 43.0511 21.119 43.0511 20.963V20.081L44.5361 19.838L45.0041 17.318C45.0341 17.198 45.0911 17.105 45.1751 17.039C45.2591 16.973 45.3671 16.94 45.4991 16.94H46.6511V19.847H49.1171V21.431H46.6511V26.435C46.6511 26.723 46.7201 26.948 46.8581 27.11C47.0021 27.272 47.1971 27.353 47.4431 27.353C47.5811 27.353 47.6951 27.338 47.7851 27.308C47.8811 27.272 47.9621 27.236 48.0281 27.2C48.1001 27.164 48.1631 27.131 48.2171 27.101C48.2711 27.065 48.3251 27.047 48.3791 27.047C48.4451 27.047 48.4991 27.065 48.5411 27.101C48.5831 27.131 48.6281 27.179 48.6761 27.245L49.3421 28.325C49.0181 28.595 48.6461 28.799 48.2261 28.937C47.8061 29.075 47.3711 29.144 46.9211 29.144ZM60.5513 21.566C60.4913 21.662 60.4283 21.731 60.3623 21.773C60.2963 21.809 60.2123 21.827 60.1103 21.827C60.0023 21.827 59.8853 21.797 59.7593 21.737C59.6393 21.677 59.4983 21.611 59.3363 21.539C59.1743 21.461 58.9883 21.392 58.7783 21.332C58.5743 21.272 58.3313 21.242 58.0493 21.242C57.6113 21.242 57.2663 21.335 57.0143 21.521C56.7683 21.707 56.6453 21.95 56.6453 22.25C56.6453 22.448 56.7083 22.616 56.8343 22.754C56.9663 22.886 57.1373 23.003 57.3473 23.105C57.5633 23.207 57.8063 23.3 58.0763 23.384C58.3463 23.462 58.6193 23.549 58.8953 23.645C59.1773 23.741 59.4533 23.852 59.7233 23.978C59.9933 24.098 60.2333 24.254 60.4433 24.446C60.6593 24.632 60.8303 24.857 60.9563 25.121C61.0883 25.385 61.1543 25.703 61.1543 26.075C61.1543 26.519 61.0733 26.93 60.9113 27.308C60.7553 27.68 60.5213 28.004 60.2093 28.28C59.8973 28.55 59.5103 28.763 59.0483 28.919C58.5923 29.069 58.0643 29.144 57.4643 29.144C57.1463 29.144 56.8343 29.114 56.5283 29.054C56.2283 29 55.9373 28.922 55.6553 28.82C55.3793 28.718 55.1213 28.598 54.8813 28.46C54.6473 28.322 54.4403 28.172 54.2603 28.01L54.7733 27.164C54.8393 27.062 54.9173 26.984 55.0073 26.93C55.0973 26.876 55.2113 26.849 55.3493 26.849C55.4873 26.849 55.6163 26.888 55.7363 26.966C55.8623 27.044 56.0063 27.128 56.1683 27.218C56.3303 27.308 56.5193 27.392 56.7353 27.47C56.9573 27.548 57.2363 27.587 57.5723 27.587C57.8363 27.587 58.0613 27.557 58.2473 27.497C58.4393 27.431 58.5953 27.347 58.7153 27.245C58.8413 27.143 58.9313 27.026 58.9853 26.894C59.0453 26.756 59.0753 26.615 59.0753 26.471C59.0753 26.255 59.0093 26.078 58.8773 25.94C58.7513 25.802 58.5803 25.682 58.3643 25.58C58.1543 25.478 57.9113 25.388 57.6353 25.31C57.3653 25.226 57.0863 25.136 56.7983 25.04C56.5163 24.944 56.2373 24.833 55.9613 24.707C55.6913 24.575 55.4483 24.41 55.2323 24.212C55.0223 24.014 54.8513 23.771 54.7193 23.483C54.5933 23.195 54.5303 22.847 54.5303 22.439C54.5303 22.061 54.6053 21.701 54.7553 21.359C54.9053 21.017 55.1243 20.72 55.4123 20.468C55.7063 20.21 56.0693 20.006 56.5013 19.856C56.9393 19.7 57.4433 19.622 58.0133 19.622C58.6493 19.622 59.2283 19.727 59.7503 19.937C60.2723 20.147 60.7073 20.423 61.0553 20.765L60.5513 21.566ZM65.9055 29.144C65.1015 29.144 64.4835 28.919 64.0515 28.469C63.6255 28.013 63.4125 27.386 63.4125 26.588V21.431H62.4675C62.3475 21.431 62.2455 21.392 62.1615 21.314C62.0775 21.236 62.0355 21.119 62.0355 20.963V20.081L63.5205 19.838L63.9885 17.318C64.0185 17.198 64.0755 17.105 64.1595 17.039C64.2435 16.973 64.3515 16.94 64.4835 16.94H65.6355V19.847H68.1015V21.431H65.6355V26.435C65.6355 26.723 65.7045 26.948 65.8425 27.11C65.9865 27.272 66.1815 27.353 66.4275 27.353C66.5655 27.353 66.6795 27.338 66.7695 27.308C66.8655 27.272 66.9465 27.236 67.0125 27.2C67.0845 27.164 67.1475 27.131 67.2015 27.101C67.2555 27.065 67.3095 27.047 67.3635 27.047C67.4295 27.047 67.4835 27.065 67.5255 27.101C67.5675 27.131 67.6125 27.179 67.6605 27.245L68.3265 28.325C68.0025 28.595 67.6305 28.799 67.2105 28.937C66.7905 29.075 66.3555 29.144 65.9055 29.144ZM74.4028 25.058C73.7608 25.088 73.2208 25.145 72.7828 25.229C72.3448 25.307 71.9938 25.409 71.7298 25.535C71.4658 25.661 71.2768 25.808 71.1628 25.976C71.0488 26.144 70.9918 26.327 70.9918 26.525C70.9918 26.915 71.1058 27.194 71.3338 27.362C71.5678 27.53 71.8708 27.614 72.2428 27.614C72.6988 27.614 73.0918 27.533 73.4218 27.371C73.7578 27.203 74.0848 26.951 74.4028 26.615V25.058ZM69.3088 21.053C70.3708 20.081 71.6488 19.595 73.1428 19.595C73.6828 19.595 74.1658 19.685 74.5918 19.865C75.0178 20.039 75.3778 20.285 75.6718 20.603C75.9658 20.915 76.1878 21.29 76.3378 21.728C76.4938 22.166 76.5718 22.646 76.5718 23.168V29H75.5638C75.3538 29 75.1918 28.97 75.0778 28.91C74.9638 28.844 74.8738 28.715 74.8078 28.523L74.6098 27.857C74.3758 28.067 74.1478 28.253 73.9258 28.415C73.7038 28.571 73.4728 28.703 73.2328 28.811C72.9928 28.919 72.7348 29 72.4588 29.054C72.1888 29.114 71.8888 29.144 71.5588 29.144C71.1688 29.144 70.8088 29.093 70.4788 28.991C70.1488 28.883 69.8638 28.724 69.6238 28.514C69.3838 28.304 69.1978 28.043 69.0658 27.731C68.9338 27.419 68.8678 27.056 68.8678 26.642C68.8678 26.408 68.9068 26.177 68.9848 25.949C69.0628 25.715 69.1888 25.493 69.3628 25.283C69.5428 25.073 69.7738 24.875 70.0558 24.689C70.3378 24.503 70.6828 24.341 71.0908 24.203C71.5048 24.065 71.9848 23.954 72.5308 23.87C73.0768 23.78 73.7008 23.726 74.4028 23.708V23.168C74.4028 22.55 74.2708 22.094 74.0068 21.8C73.7428 21.5 73.3618 21.35 72.8638 21.35C72.5038 21.35 72.2038 21.392 71.9638 21.476C71.7298 21.56 71.5228 21.656 71.3428 21.764C71.1628 21.866 70.9978 21.959 70.8478 22.043C70.7038 22.127 70.5418 22.169 70.3618 22.169C70.2058 22.169 70.0738 22.13 69.9658 22.052C69.8578 21.968 69.7708 21.872 69.7048 21.764L69.3088 21.053ZM80.7624 21.368C81.0504 20.816 81.3924 20.384 81.7884 20.072C82.1844 19.754 82.6524 19.595 83.1924 19.595C83.6184 19.595 83.9604 19.688 84.2184 19.874L84.0744 21.539C84.0444 21.647 83.9994 21.725 83.9394 21.773C83.8854 21.815 83.8104 21.836 83.7144 21.836C83.6244 21.836 83.4894 21.821 83.3094 21.791C83.1354 21.761 82.9644 21.746 82.7964 21.746C82.5504 21.746 82.3314 21.782 82.1394 21.854C81.9474 21.926 81.7734 22.031 81.6174 22.169C81.4674 22.301 81.3324 22.463 81.2124 22.655C81.0984 22.847 80.9904 23.066 80.8884 23.312V29H78.6654V19.766H79.9704C80.1984 19.766 80.3574 19.808 80.4474 19.892C80.5374 19.97 80.5974 20.114 80.6274 20.324L80.7624 21.368ZM88.4582 29.144C87.6542 29.144 87.0362 28.919 86.6042 28.469C86.1782 28.013 85.9652 27.386 85.9652 26.588V21.431H85.0202C84.9002 21.431 84.7982 21.392 84.7142 21.314C84.6302 21.236 84.5882 21.119 84.5882 20.963V20.081L86.0732 19.838L86.5412 17.318C86.5712 17.198 86.6282 17.105 86.7122 17.039C86.7962 16.973 86.9042 16.94 87.0362 16.94H88.1882V19.847H90.6542V21.431H88.1882V26.435C88.1882 26.723 88.2572 26.948 88.3952 27.11C88.5392 27.272 88.7342 27.353 88.9802 27.353C89.1182 27.353 89.2322 27.338 89.3222 27.308C89.4182 27.272 89.4992 27.236 89.5652 27.2C89.6372 27.164 89.7002 27.131 89.7542 27.101C89.8082 27.065 89.8622 27.047 89.9162 27.047C89.9822 27.047 90.0362 27.065 90.0782 27.101C90.1202 27.131 90.1652 27.179 90.2132 27.245L90.8792 28.325C90.5552 28.595 90.1832 28.799 89.7632 28.937C89.3432 29.075 88.9082 29.144 88.4582 29.144ZM97.9562 23.321C97.9562 23.033 97.9142 22.763 97.8302 22.511C97.7522 22.253 97.6322 22.028 97.4702 21.836C97.3082 21.644 97.1012 21.494 96.8492 21.386C96.6032 21.272 96.3152 21.215 95.9852 21.215C95.3432 21.215 94.8362 21.398 94.4642 21.764C94.0982 22.13 93.8642 22.649 93.7622 23.321H97.9562ZM93.7172 24.662C93.7532 25.136 93.8372 25.547 93.9692 25.895C94.1012 26.237 94.2752 26.522 94.4912 26.75C94.7072 26.972 94.9622 27.14 95.2562 27.254C95.5562 27.362 95.8862 27.416 96.2462 27.416C96.6062 27.416 96.9152 27.374 97.1732 27.29C97.4372 27.206 97.6652 27.113 97.8572 27.011C98.0552 26.909 98.2262 26.816 98.3702 26.732C98.5202 26.648 98.6642 26.606 98.8022 26.606C98.9882 26.606 99.1262 26.675 99.2162 26.813L99.8552 27.623C99.6092 27.911 99.3332 28.154 99.0272 28.352C98.7212 28.544 98.4002 28.7 98.0642 28.82C97.7342 28.934 97.3952 29.015 97.0472 29.063C96.7052 29.111 96.3722 29.135 96.0482 29.135C95.4062 29.135 94.8092 29.03 94.2572 28.82C93.7052 28.604 93.2252 28.289 92.8172 27.875C92.4092 27.455 92.0882 26.939 91.8542 26.327C91.6202 25.709 91.5032 24.995 91.5032 24.185C91.5032 23.555 91.6052 22.964 91.8092 22.412C92.0132 21.854 92.3042 21.371 92.6822 20.963C93.0662 20.549 93.5312 20.222 94.0772 19.982C94.6292 19.742 95.2502 19.622 95.9402 19.622C96.5222 19.622 97.0592 19.715 97.5512 19.901C98.0432 20.087 98.4662 20.36 98.8202 20.72C99.1742 21.074 99.4502 21.512 99.6482 22.034C99.8522 22.55 99.9542 23.141 99.9542 23.807C99.9542 24.143 99.9182 24.371 99.8462 24.491C99.7742 24.605 99.6362 24.662 99.4322 24.662H93.7172ZM107.418 22.124C107.166 21.818 106.89 21.602 106.59 21.476C106.296 21.35 105.978 21.287 105.636 21.287C105.3 21.287 104.997 21.35 104.727 21.476C104.457 21.602 104.226 21.794 104.034 22.052C103.842 22.304 103.695 22.628 103.593 23.024C103.491 23.414 103.44 23.876 103.44 24.41C103.44 24.95 103.482 25.409 103.566 25.787C103.656 26.159 103.782 26.465 103.944 26.705C104.106 26.939 104.304 27.11 104.538 27.218C104.772 27.32 105.033 27.371 105.321 27.371C105.783 27.371 106.176 27.275 106.5 27.083C106.824 26.891 107.13 26.618 107.418 26.264V22.124ZM109.641 15.626V29H108.282C107.988 29 107.802 28.865 107.724 28.595L107.535 27.704C107.163 28.13 106.734 28.475 106.248 28.739C105.768 29.003 105.207 29.135 104.565 29.135C104.061 29.135 103.599 29.03 103.179 28.82C102.759 28.61 102.396 28.307 102.09 27.911C101.79 27.509 101.556 27.014 101.388 26.426C101.226 25.838 101.145 25.166 101.145 24.41C101.145 23.726 101.238 23.09 101.424 22.502C101.61 21.914 101.877 21.404 102.225 20.972C102.573 20.54 102.99 20.204 103.476 19.964C103.962 19.718 104.508 19.595 105.114 19.595C105.63 19.595 106.071 19.676 106.437 19.838C106.803 20 107.13 20.219 107.418 20.495V15.626H109.641Z" fill="white"/>
</svg>
