<svg width="155" height="44" viewBox="0 0 155 44" fill="none" xmlns="http://www.w3.org/2000/svg">
<rect width="155" height="44" rx="22" fill="#F22539"/>
<path d="M32.2317 22.475V27.74C31.5717 28.226 30.8667 28.583 30.1167 28.811C29.3727 29.033 28.5747 29.144 27.7227 29.144C26.6607 29.144 25.6977 28.979 24.8337 28.649C23.9757 28.319 23.2407 27.86 22.6287 27.272C22.0227 26.684 21.5547 25.982 21.2247 25.166C20.8947 24.35 20.7297 23.459 20.7297 22.493C20.7297 21.515 20.8887 20.618 21.2067 19.802C21.5247 18.986 21.9747 18.284 22.5567 17.696C23.1447 17.108 23.8557 16.652 24.6897 16.328C25.5237 16.004 26.4597 15.842 27.4977 15.842C28.0257 15.842 28.5177 15.884 28.9737 15.968C29.4357 16.052 29.8617 16.169 30.2517 16.319C30.6477 16.463 31.0077 16.64 31.3317 16.85C31.6557 17.06 31.9527 17.291 32.2227 17.543L31.5297 18.641C31.4217 18.815 31.2807 18.923 31.1067 18.965C30.9327 19.001 30.7437 18.956 30.5397 18.83C30.3417 18.716 30.1437 18.602 29.9457 18.488C29.7477 18.374 29.5257 18.275 29.2797 18.191C29.0397 18.107 28.7667 18.038 28.4607 17.984C28.1607 17.93 27.8127 17.903 27.4167 17.903C26.7747 17.903 26.1927 18.011 25.6707 18.227C25.1547 18.443 24.7137 18.752 24.3477 19.154C23.9817 19.556 23.6997 20.039 23.5017 20.603C23.3037 21.167 23.2047 21.797 23.2047 22.493C23.2047 23.237 23.3097 23.903 23.5197 24.491C23.7357 25.073 24.0357 25.568 24.4197 25.976C24.8097 26.378 25.2777 26.687 25.8237 26.903C26.3697 27.113 26.9787 27.218 27.6507 27.218C28.1307 27.218 28.5597 27.167 28.9377 27.065C29.3157 26.963 29.6847 26.825 30.0447 26.651V24.293H28.4067C28.2507 24.293 28.1277 24.251 28.0377 24.167C27.9537 24.077 27.9117 23.969 27.9117 23.843V22.475H32.2317ZM38.1938 19.622C38.8778 19.622 39.4988 19.733 40.0568 19.955C40.6208 20.177 41.1008 20.492 41.4968 20.9C41.8988 21.308 42.2078 21.806 42.4238 22.394C42.6398 22.982 42.7478 23.639 42.7478 24.365C42.7478 25.097 42.6398 25.757 42.4238 26.345C42.2078 26.933 41.8988 27.434 41.4968 27.848C41.1008 28.262 40.6208 28.58 40.0568 28.802C39.4988 29.024 38.8778 29.135 38.1938 29.135C37.5038 29.135 36.8768 29.024 36.3128 28.802C35.7488 28.58 35.2658 28.262 34.8638 27.848C34.4678 27.434 34.1588 26.933 33.9368 26.345C33.7208 25.757 33.6128 25.097 33.6128 24.365C33.6128 23.639 33.7208 22.982 33.9368 22.394C34.1588 21.806 34.4678 21.308 34.8638 20.9C35.2658 20.492 35.7488 20.177 36.3128 19.955C36.8768 19.733 37.5038 19.622 38.1938 19.622ZM38.1938 27.425C38.9618 27.425 39.5288 27.167 39.8948 26.651C40.2668 26.135 40.4528 25.379 40.4528 24.383C40.4528 23.387 40.2668 22.628 39.8948 22.106C39.5288 21.584 38.9618 21.323 38.1938 21.323C37.4138 21.323 36.8348 21.587 36.4568 22.115C36.0848 22.637 35.8988 23.393 35.8988 24.383C35.8988 25.373 36.0848 26.129 36.4568 26.651C36.8348 27.167 37.4138 27.425 38.1938 27.425ZM51.0437 26.606C51.2957 26.912 51.5687 27.128 51.8627 27.254C52.1627 27.38 52.4777 27.443 52.8077 27.443C53.1497 27.443 53.4557 27.383 53.7257 27.263C54.0017 27.137 54.2357 26.945 54.4277 26.687C54.6197 26.423 54.7667 26.09 54.8687 25.688C54.9707 25.28 55.0217 24.794 55.0217 24.23C55.0217 23.216 54.8537 22.484 54.5177 22.034C54.1817 21.578 53.6987 21.35 53.0687 21.35C52.6427 21.35 52.2707 21.449 51.9527 21.647C51.6347 21.839 51.3317 22.112 51.0437 22.466V26.606ZM51.0437 20.9C51.4157 20.51 51.8267 20.201 52.2767 19.973C52.7327 19.739 53.2517 19.622 53.8337 19.622C54.3677 19.622 54.8477 19.727 55.2737 19.937C55.7057 20.147 56.0717 20.45 56.3717 20.846C56.6777 21.236 56.9117 21.71 57.0737 22.268C57.2357 22.826 57.3167 23.453 57.3167 24.149C57.3167 24.899 57.2237 25.58 57.0377 26.192C56.8517 26.804 56.5847 27.329 56.2367 27.767C55.8947 28.199 55.4807 28.535 54.9947 28.775C54.5087 29.015 53.9687 29.135 53.3747 29.135C53.0867 29.135 52.8257 29.105 52.5917 29.045C52.3577 28.991 52.1417 28.913 51.9437 28.811C51.7457 28.709 51.5627 28.586 51.3947 28.442C51.2327 28.292 51.0767 28.127 50.9267 27.947L50.8277 28.568C50.7917 28.724 50.7287 28.835 50.6387 28.901C50.5547 28.967 50.4377 29 50.2877 29H48.8207V15.626H51.0437V20.9ZM63.9115 25.058C63.2695 25.088 62.7295 25.145 62.2915 25.229C61.8535 25.307 61.5025 25.409 61.2385 25.535C60.9745 25.661 60.7855 25.808 60.6715 25.976C60.5575 26.144 60.5005 26.327 60.5005 26.525C60.5005 26.915 60.6145 27.194 60.8425 27.362C61.0765 27.53 61.3795 27.614 61.7515 27.614C62.2075 27.614 62.6005 27.533 62.9305 27.371C63.2665 27.203 63.5935 26.951 63.9115 26.615V25.058ZM58.8175 21.053C59.8795 20.081 61.1575 19.595 62.6515 19.595C63.1915 19.595 63.6745 19.685 64.1005 19.865C64.5265 20.039 64.8865 20.285 65.1805 20.603C65.4745 20.915 65.6965 21.29 65.8465 21.728C66.0025 22.166 66.0805 22.646 66.0805 23.168V29H65.0725C64.8625 29 64.7005 28.97 64.5865 28.91C64.4725 28.844 64.3825 28.715 64.3165 28.523L64.1185 27.857C63.8845 28.067 63.6565 28.253 63.4345 28.415C63.2125 28.571 62.9815 28.703 62.7415 28.811C62.5015 28.919 62.2435 29 61.9675 29.054C61.6975 29.114 61.3975 29.144 61.0675 29.144C60.6775 29.144 60.3175 29.093 59.9875 28.991C59.6575 28.883 59.3725 28.724 59.1325 28.514C58.8925 28.304 58.7065 28.043 58.5745 27.731C58.4425 27.419 58.3765 27.056 58.3765 26.642C58.3765 26.408 58.4155 26.177 58.4935 25.949C58.5715 25.715 58.6975 25.493 58.8715 25.283C59.0515 25.073 59.2825 24.875 59.5645 24.689C59.8465 24.503 60.1915 24.341 60.5995 24.203C61.0135 24.065 61.4935 23.954 62.0395 23.87C62.5855 23.78 63.2095 23.726 63.9115 23.708V23.168C63.9115 22.55 63.7795 22.094 63.5155 21.8C63.2515 21.5 62.8705 21.35 62.3725 21.35C62.0125 21.35 61.7125 21.392 61.4725 21.476C61.2385 21.56 61.0315 21.656 60.8515 21.764C60.6715 21.866 60.5065 21.959 60.3565 22.043C60.2125 22.127 60.0505 22.169 59.8705 22.169C59.7145 22.169 59.5825 22.13 59.4745 22.052C59.3665 21.968 59.2795 21.872 59.2135 21.764L58.8175 21.053ZM74.7892 21.719C74.7232 21.803 74.6572 21.869 74.5912 21.917C74.5312 21.965 74.4412 21.989 74.3212 21.989C74.2072 21.989 74.0962 21.956 73.9882 21.89C73.8802 21.818 73.7512 21.74 73.6012 21.656C73.4512 21.566 73.2712 21.488 73.0612 21.422C72.8572 21.35 72.6022 21.314 72.2962 21.314C71.9062 21.314 71.5642 21.386 71.2702 21.53C70.9762 21.668 70.7302 21.869 70.5322 22.133C70.3402 22.397 70.1962 22.718 70.1002 23.096C70.0042 23.468 69.9562 23.891 69.9562 24.365C69.9562 24.857 70.0072 25.295 70.1092 25.679C70.2172 26.063 70.3702 26.387 70.5682 26.651C70.7662 26.909 71.0062 27.107 71.2882 27.245C71.5702 27.377 71.8882 27.443 72.2422 27.443C72.5962 27.443 72.8812 27.401 73.0972 27.317C73.3192 27.227 73.5052 27.131 73.6552 27.029C73.8052 26.921 73.9342 26.825 74.0422 26.741C74.1562 26.651 74.2822 26.606 74.4202 26.606C74.6002 26.606 74.7352 26.675 74.8252 26.813L75.4642 27.623C75.2182 27.911 74.9512 28.154 74.6632 28.352C74.3752 28.544 74.0752 28.7 73.7632 28.82C73.4572 28.934 73.1392 29.015 72.8092 29.063C72.4852 29.111 72.1612 29.135 71.8372 29.135C71.2672 29.135 70.7302 29.03 70.2262 28.82C69.7222 28.604 69.2812 28.292 68.9032 27.884C68.5252 27.476 68.2252 26.978 68.0032 26.39C67.7872 25.796 67.6792 25.121 67.6792 24.365C67.6792 23.687 67.7752 23.06 67.9672 22.484C68.1652 21.902 68.4532 21.401 68.8312 20.981C69.2092 20.555 69.6772 20.222 70.2352 19.982C70.7932 19.742 71.4352 19.622 72.1612 19.622C72.8512 19.622 73.4542 19.733 73.9702 19.955C74.4922 20.177 74.9602 20.495 75.3742 20.909L74.7892 21.719ZM79.0808 15.626V23.285H79.4948C79.6448 23.285 79.7618 23.267 79.8458 23.231C79.9358 23.189 80.0258 23.108 80.1158 22.988L82.4108 20.153C82.5068 20.027 82.6118 19.931 82.7258 19.865C82.8458 19.799 82.9988 19.766 83.1848 19.766H85.2188L82.3478 23.195C82.1438 23.465 81.9218 23.672 81.6818 23.816C81.8078 23.906 81.9188 24.011 82.0148 24.131C82.1168 24.251 82.2128 24.38 82.3028 24.518L85.3808 29H83.3738C83.1998 29 83.0498 28.973 82.9238 28.919C82.7978 28.859 82.6928 28.754 82.6088 28.604L80.2508 25.103C80.1668 24.965 80.0798 24.875 79.9898 24.833C79.8998 24.791 79.7648 24.77 79.5848 24.77H79.0808V29H76.8578V15.626H79.0808ZM93.073 20.756C93.433 20.42 93.829 20.147 94.261 19.937C94.693 19.727 95.2 19.622 95.782 19.622C96.286 19.622 96.733 19.709 97.123 19.883C97.513 20.051 97.837 20.291 98.095 20.603C98.359 20.909 98.557 21.278 98.689 21.71C98.827 22.136 98.896 22.607 98.896 23.123V29H96.673V23.123C96.673 22.559 96.544 22.124 96.286 21.818C96.028 21.506 95.635 21.35 95.107 21.35C94.723 21.35 94.363 21.437 94.027 21.611C93.691 21.785 93.373 22.022 93.073 22.322V29H90.85V15.626H93.073V20.756ZM105.096 19.622C105.78 19.622 106.401 19.733 106.959 19.955C107.523 20.177 108.003 20.492 108.399 20.9C108.801 21.308 109.11 21.806 109.326 22.394C109.542 22.982 109.65 23.639 109.65 24.365C109.65 25.097 109.542 25.757 109.326 26.345C109.11 26.933 108.801 27.434 108.399 27.848C108.003 28.262 107.523 28.58 106.959 28.802C106.401 29.024 105.78 29.135 105.096 29.135C104.406 29.135 103.779 29.024 103.215 28.802C102.651 28.58 102.168 28.262 101.766 27.848C101.37 27.434 101.061 26.933 100.839 26.345C100.623 25.757 100.515 25.097 100.515 24.365C100.515 23.639 100.623 22.982 100.839 22.394C101.061 21.806 101.37 21.308 101.766 20.9C102.168 20.492 102.651 20.177 103.215 19.955C103.779 19.733 104.406 19.622 105.096 19.622ZM105.096 27.425C105.864 27.425 106.431 27.167 106.797 26.651C107.169 26.135 107.355 25.379 107.355 24.383C107.355 23.387 107.169 22.628 106.797 22.106C106.431 21.584 105.864 21.323 105.096 21.323C104.316 21.323 103.737 21.587 103.359 22.115C102.987 22.637 102.801 23.393 102.801 24.383C102.801 25.373 102.987 26.129 103.359 26.651C103.737 27.167 104.316 27.425 105.096 27.425ZM111.346 29V19.766H112.705C112.993 19.766 113.182 19.901 113.272 20.171L113.416 20.855C113.578 20.675 113.746 20.51 113.92 20.36C114.1 20.21 114.289 20.081 114.487 19.973C114.691 19.865 114.907 19.781 115.135 19.721C115.369 19.655 115.624 19.622 115.9 19.622C116.482 19.622 116.959 19.781 117.331 20.099C117.709 20.411 117.991 20.828 118.177 21.35C118.321 21.044 118.501 20.783 118.717 20.567C118.933 20.345 119.17 20.165 119.428 20.027C119.686 19.889 119.959 19.787 120.247 19.721C120.541 19.655 120.835 19.622 121.129 19.622C121.639 19.622 122.092 19.7 122.488 19.856C122.884 20.012 123.217 20.24 123.487 20.54C123.757 20.84 123.961 21.206 124.099 21.638C124.243 22.07 124.315 22.565 124.315 23.123V29H122.092V23.123C122.092 22.535 121.963 22.094 121.705 21.8C121.447 21.5 121.069 21.35 120.571 21.35C120.343 21.35 120.13 21.389 119.932 21.467C119.74 21.545 119.569 21.659 119.419 21.809C119.275 21.953 119.161 22.136 119.077 22.358C118.993 22.58 118.951 22.835 118.951 23.123V29H116.719V23.123C116.719 22.505 116.593 22.055 116.341 21.773C116.095 21.491 115.732 21.35 115.252 21.35C114.928 21.35 114.625 21.431 114.343 21.593C114.067 21.749 113.809 21.965 113.569 22.241V29H111.346ZM132.377 23.321C132.377 23.033 132.335 22.763 132.251 22.511C132.173 22.253 132.053 22.028 131.891 21.836C131.729 21.644 131.522 21.494 131.27 21.386C131.024 21.272 130.736 21.215 130.406 21.215C129.764 21.215 129.257 21.398 128.885 21.764C128.519 22.13 128.285 22.649 128.183 23.321H132.377ZM128.138 24.662C128.174 25.136 128.258 25.547 128.39 25.895C128.522 26.237 128.696 26.522 128.912 26.75C129.128 26.972 129.383 27.14 129.677 27.254C129.977 27.362 130.307 27.416 130.667 27.416C131.027 27.416 131.336 27.374 131.594 27.29C131.858 27.206 132.086 27.113 132.278 27.011C132.476 26.909 132.647 26.816 132.791 26.732C132.941 26.648 133.085 26.606 133.223 26.606C133.409 26.606 133.547 26.675 133.637 26.813L134.276 27.623C134.03 27.911 133.754 28.154 133.448 28.352C133.142 28.544 132.821 28.7 132.485 28.82C132.155 28.934 131.816 29.015 131.468 29.063C131.126 29.111 130.793 29.135 130.469 29.135C129.827 29.135 129.23 29.03 128.678 28.82C128.126 28.604 127.646 28.289 127.238 27.875C126.83 27.455 126.509 26.939 126.275 26.327C126.041 25.709 125.924 24.995 125.924 24.185C125.924 23.555 126.026 22.964 126.23 22.412C126.434 21.854 126.725 21.371 127.103 20.963C127.487 20.549 127.952 20.222 128.498 19.982C129.05 19.742 129.671 19.622 130.361 19.622C130.943 19.622 131.48 19.715 131.972 19.901C132.464 20.087 132.887 20.36 133.241 20.72C133.595 21.074 133.871 21.512 134.069 22.034C134.273 22.55 134.375 23.141 134.375 23.807C134.375 24.143 134.339 24.371 134.267 24.491C134.195 24.605 134.057 24.662 133.853 24.662H128.138Z" fill="white"/>
</svg>
