<svg width="195" height="44" viewBox="0 0 195 44" fill="none" xmlns="http://www.w3.org/2000/svg">
<rect width="195" height="44" rx="22" fill="#F22539"/>
<path d="M28.5177 18.353C28.4457 18.479 28.3677 18.572 28.2837 18.632C28.2057 18.686 28.1067 18.713 27.9867 18.713C27.8607 18.713 27.7227 18.668 27.5727 18.578C27.4287 18.482 27.2547 18.377 27.0507 18.263C26.8467 18.149 26.6067 18.047 26.3307 17.957C26.0607 17.861 25.7397 17.813 25.3677 17.813C25.0317 17.813 24.7377 17.855 24.4857 17.939C24.2337 18.017 24.0207 18.128 23.8467 18.272C23.6787 18.416 23.5527 18.59 23.4687 18.794C23.3847 18.992 23.3427 19.211 23.3427 19.451C23.3427 19.757 23.4267 20.012 23.5947 20.216C23.7687 20.42 23.9967 20.594 24.2787 20.738C24.5607 20.882 24.8817 21.011 25.2417 21.125C25.6017 21.239 25.9707 21.362 26.3487 21.494C26.7267 21.62 27.0957 21.77 27.4557 21.944C27.8157 22.112 28.1367 22.328 28.4187 22.592C28.7007 22.85 28.9257 23.168 29.0937 23.546C29.2677 23.924 29.3547 24.383 29.3547 24.923C29.3547 25.511 29.2527 26.063 29.0487 26.579C28.8507 27.089 28.5567 27.536 28.1667 27.92C27.7827 28.298 27.3117 28.598 26.7537 28.82C26.1957 29.036 25.5567 29.144 24.8367 29.144C24.4227 29.144 24.0147 29.102 23.6127 29.018C23.2107 28.94 22.8237 28.826 22.4517 28.676C22.0857 28.526 21.7407 28.346 21.4167 28.136C21.0927 27.926 20.8047 27.692 20.5527 27.434L21.2637 26.273C21.3237 26.189 21.4017 26.12 21.4977 26.066C21.5937 26.006 21.6957 25.976 21.8037 25.976C21.9537 25.976 22.1157 26.039 22.2897 26.165C22.4637 26.285 22.6707 26.42 22.9107 26.57C23.1507 26.72 23.4297 26.858 23.7477 26.984C24.0717 27.104 24.4587 27.164 24.9087 27.164C25.5987 27.164 26.1327 27.002 26.5107 26.678C26.8887 26.348 27.0777 25.877 27.0777 25.265C27.0777 24.923 26.9907 24.644 26.8167 24.428C26.6487 24.212 26.4237 24.032 26.1417 23.888C25.8597 23.738 25.5387 23.612 25.1787 23.51C24.8187 23.408 24.4527 23.297 24.0807 23.177C23.7087 23.057 23.3427 22.913 22.9827 22.745C22.6227 22.577 22.3017 22.358 22.0197 22.088C21.7377 21.818 21.5097 21.482 21.3357 21.08C21.1677 20.672 21.0837 20.171 21.0837 19.577C21.0837 19.103 21.1767 18.641 21.3627 18.191C21.5547 17.741 21.8307 17.342 22.1907 16.994C22.5507 16.646 22.9947 16.367 23.5227 16.157C24.0507 15.947 24.6567 15.842 25.3407 15.842C26.1087 15.842 26.8167 15.962 27.4647 16.202C28.1127 16.442 28.6647 16.778 29.1207 17.21L28.5177 18.353ZM33.2155 20.756C33.5755 20.42 33.9715 20.147 34.4035 19.937C34.8355 19.727 35.3425 19.622 35.9245 19.622C36.4285 19.622 36.8755 19.709 37.2655 19.883C37.6555 20.051 37.9795 20.291 38.2375 20.603C38.5015 20.909 38.6995 21.278 38.8315 21.71C38.9695 22.136 39.0385 22.607 39.0385 23.123V29H36.8155V23.123C36.8155 22.559 36.6865 22.124 36.4285 21.818C36.1705 21.506 35.7775 21.35 35.2495 21.35C34.8655 21.35 34.5055 21.437 34.1695 21.611C33.8335 21.785 33.5155 22.022 33.2155 22.322V29H30.9925V15.626H33.2155V20.756ZM46.0307 25.058C45.3887 25.088 44.8487 25.145 44.4107 25.229C43.9727 25.307 43.6217 25.409 43.3577 25.535C43.0937 25.661 42.9047 25.808 42.7907 25.976C42.6767 26.144 42.6197 26.327 42.6197 26.525C42.6197 26.915 42.7337 27.194 42.9617 27.362C43.1957 27.53 43.4987 27.614 43.8707 27.614C44.3267 27.614 44.7197 27.533 45.0497 27.371C45.3857 27.203 45.7127 26.951 46.0307 26.615V25.058ZM40.9367 21.053C41.9987 20.081 43.2767 19.595 44.7707 19.595C45.3107 19.595 45.7937 19.685 46.2197 19.865C46.6457 20.039 47.0057 20.285 47.2997 20.603C47.5937 20.915 47.8157 21.29 47.9657 21.728C48.1217 22.166 48.1997 22.646 48.1997 23.168V29H47.1917C46.9817 29 46.8197 28.97 46.7057 28.91C46.5917 28.844 46.5017 28.715 46.4357 28.523L46.2377 27.857C46.0037 28.067 45.7757 28.253 45.5537 28.415C45.3317 28.571 45.1007 28.703 44.8607 28.811C44.6207 28.919 44.3627 29 44.0867 29.054C43.8167 29.114 43.5167 29.144 43.1867 29.144C42.7967 29.144 42.4367 29.093 42.1067 28.991C41.7767 28.883 41.4917 28.724 41.2517 28.514C41.0117 28.304 40.8257 28.043 40.6937 27.731C40.5617 27.419 40.4957 27.056 40.4957 26.642C40.4957 26.408 40.5347 26.177 40.6127 25.949C40.6907 25.715 40.8167 25.493 40.9907 25.283C41.1707 25.073 41.4017 24.875 41.6837 24.689C41.9657 24.503 42.3107 24.341 42.7187 24.203C43.1327 24.065 43.6127 23.954 44.1587 23.87C44.7047 23.78 45.3287 23.726 46.0307 23.708V23.168C46.0307 22.55 45.8987 22.094 45.6347 21.8C45.3707 21.5 44.9897 21.35 44.4917 21.35C44.1317 21.35 43.8317 21.392 43.5917 21.476C43.3577 21.56 43.1507 21.656 42.9707 21.764C42.7907 21.866 42.6257 21.959 42.4757 22.043C42.3317 22.127 42.1697 22.169 41.9897 22.169C41.8337 22.169 41.7017 22.13 41.5937 22.052C41.4857 21.968 41.3987 21.872 41.3327 21.764L40.9367 21.053ZM52.3903 21.368C52.6783 20.816 53.0203 20.384 53.4163 20.072C53.8123 19.754 54.2803 19.595 54.8203 19.595C55.2463 19.595 55.5883 19.688 55.8463 19.874L55.7023 21.539C55.6723 21.647 55.6273 21.725 55.5673 21.773C55.5133 21.815 55.4383 21.836 55.3423 21.836C55.2523 21.836 55.1173 21.821 54.9373 21.791C54.7633 21.761 54.5923 21.746 54.4243 21.746C54.1783 21.746 53.9593 21.782 53.7673 21.854C53.5753 21.926 53.4013 22.031 53.2453 22.169C53.0953 22.301 52.9603 22.463 52.8403 22.655C52.7263 22.847 52.6183 23.066 52.5163 23.312V29H50.2933V19.766H51.5983C51.8263 19.766 51.9853 19.808 52.0753 19.892C52.1653 19.97 52.2253 20.114 52.2553 20.324L52.3903 21.368ZM62.6935 23.321C62.6935 23.033 62.6515 22.763 62.5675 22.511C62.4895 22.253 62.3695 22.028 62.2075 21.836C62.0455 21.644 61.8385 21.494 61.5865 21.386C61.3405 21.272 61.0525 21.215 60.7225 21.215C60.0805 21.215 59.5735 21.398 59.2015 21.764C58.8355 22.13 58.6015 22.649 58.4995 23.321H62.6935ZM58.4545 24.662C58.4905 25.136 58.5745 25.547 58.7065 25.895C58.8385 26.237 59.0125 26.522 59.2285 26.75C59.4445 26.972 59.6995 27.14 59.9935 27.254C60.2935 27.362 60.6235 27.416 60.9835 27.416C61.3435 27.416 61.6525 27.374 61.9105 27.29C62.1745 27.206 62.4025 27.113 62.5945 27.011C62.7925 26.909 62.9635 26.816 63.1075 26.732C63.2575 26.648 63.4015 26.606 63.5395 26.606C63.7255 26.606 63.8635 26.675 63.9535 26.813L64.5925 27.623C64.3465 27.911 64.0705 28.154 63.7645 28.352C63.4585 28.544 63.1375 28.7 62.8015 28.82C62.4715 28.934 62.1325 29.015 61.7845 29.063C61.4425 29.111 61.1095 29.135 60.7855 29.135C60.1435 29.135 59.5465 29.03 58.9945 28.82C58.4425 28.604 57.9625 28.289 57.5545 27.875C57.1465 27.455 56.8255 26.939 56.5915 26.327C56.3575 25.709 56.2405 24.995 56.2405 24.185C56.2405 23.555 56.3425 22.964 56.5465 22.412C56.7505 21.854 57.0415 21.371 57.4195 20.963C57.8035 20.549 58.2685 20.222 58.8145 19.982C59.3665 19.742 59.9875 19.622 60.6775 19.622C61.2595 19.622 61.7965 19.715 62.2885 19.901C62.7805 20.087 63.2035 20.36 63.5575 20.72C63.9115 21.074 64.1875 21.512 64.3855 22.034C64.5895 22.55 64.6915 23.141 64.6915 23.807C64.6915 24.143 64.6555 24.371 64.5835 24.491C64.5115 24.605 64.3735 24.662 64.1695 24.662H58.4545ZM73.8147 29.144C73.0107 29.144 72.3927 28.919 71.9607 28.469C71.5347 28.013 71.3217 27.386 71.3217 26.588V21.431H70.3767C70.2567 21.431 70.1547 21.392 70.0707 21.314C69.9867 21.236 69.9447 21.119 69.9447 20.963V20.081L71.4297 19.838L71.8977 17.318C71.9277 17.198 71.9847 17.105 72.0687 17.039C72.1527 16.973 72.2607 16.94 72.3927 16.94H73.5447V19.847H76.0107V21.431H73.5447V26.435C73.5447 26.723 73.6137 26.948 73.7517 27.11C73.8957 27.272 74.0907 27.353 74.3367 27.353C74.4747 27.353 74.5887 27.338 74.6787 27.308C74.7747 27.272 74.8557 27.236 74.9217 27.2C74.9937 27.164 75.0567 27.131 75.1107 27.101C75.1647 27.065 75.2187 27.047 75.2727 27.047C75.3387 27.047 75.3927 27.065 75.4347 27.101C75.4767 27.131 75.5217 27.179 75.5697 27.245L76.2357 28.325C75.9117 28.595 75.5397 28.799 75.1197 28.937C74.6997 29.075 74.2647 29.144 73.8147 29.144ZM81.4496 19.622C82.1336 19.622 82.7546 19.733 83.3126 19.955C83.8766 20.177 84.3566 20.492 84.7526 20.9C85.1546 21.308 85.4636 21.806 85.6796 22.394C85.8956 22.982 86.0036 23.639 86.0036 24.365C86.0036 25.097 85.8956 25.757 85.6796 26.345C85.4636 26.933 85.1546 27.434 84.7526 27.848C84.3566 28.262 83.8766 28.58 83.3126 28.802C82.7546 29.024 82.1336 29.135 81.4496 29.135C80.7596 29.135 80.1326 29.024 79.5686 28.802C79.0046 28.58 78.5216 28.262 78.1196 27.848C77.7236 27.434 77.4146 26.933 77.1926 26.345C76.9766 25.757 76.8686 25.097 76.8686 24.365C76.8686 23.639 76.9766 22.982 77.1926 22.394C77.4146 21.806 77.7236 21.308 78.1196 20.9C78.5216 20.492 79.0046 20.177 79.5686 19.955C80.1326 19.733 80.7596 19.622 81.4496 19.622ZM81.4496 27.425C82.2176 27.425 82.7846 27.167 83.1506 26.651C83.5226 26.135 83.7086 25.379 83.7086 24.383C83.7086 23.387 83.5226 22.628 83.1506 22.106C82.7846 21.584 82.2176 21.323 81.4496 21.323C80.6696 21.323 80.0906 21.587 79.7126 22.115C79.3406 22.637 79.1546 23.393 79.1546 24.383C79.1546 25.373 79.3406 26.129 79.7126 26.651C80.0906 27.167 80.6696 27.425 81.4496 27.425ZM92.0765 29V19.766H93.4355C93.7235 19.766 93.9125 19.901 94.0025 20.171L94.1465 20.855C94.3085 20.675 94.4765 20.51 94.6505 20.36C94.8305 20.21 95.0195 20.081 95.2175 19.973C95.4215 19.865 95.6375 19.781 95.8655 19.721C96.0995 19.655 96.3545 19.622 96.6305 19.622C97.2125 19.622 97.6895 19.781 98.0615 20.099C98.4395 20.411 98.7215 20.828 98.9075 21.35C99.0515 21.044 99.2315 20.783 99.4475 20.567C99.6635 20.345 99.9005 20.165 100.159 20.027C100.417 19.889 100.69 19.787 100.978 19.721C101.272 19.655 101.566 19.622 101.86 19.622C102.37 19.622 102.823 19.7 103.219 19.856C103.615 20.012 103.948 20.24 104.218 20.54C104.488 20.84 104.692 21.206 104.83 21.638C104.974 22.07 105.046 22.565 105.046 23.123V29H102.823V23.123C102.823 22.535 102.694 22.094 102.436 21.8C102.178 21.5 101.8 21.35 101.302 21.35C101.074 21.35 100.861 21.389 100.663 21.467C100.471 21.545 100.3 21.659 100.15 21.809C100.006 21.953 99.8915 22.136 99.8075 22.358C99.7235 22.58 99.6815 22.835 99.6815 23.123V29H97.4495V23.123C97.4495 22.505 97.3235 22.055 97.0715 21.773C96.8255 21.491 96.4625 21.35 95.9825 21.35C95.6585 21.35 95.3555 21.431 95.0735 21.593C94.7975 21.749 94.5395 21.965 94.2995 22.241V29H92.0765ZM115.3 19.766L110.269 31.538C110.203 31.694 110.116 31.811 110.008 31.889C109.906 31.973 109.747 32.015 109.531 32.015H107.875L109.603 28.307L105.868 19.766H107.821C107.995 19.766 108.13 19.808 108.226 19.892C108.328 19.976 108.403 20.072 108.451 20.18L110.413 24.968C110.479 25.13 110.533 25.292 110.575 25.454C110.623 25.616 110.668 25.781 110.71 25.949C110.764 25.781 110.818 25.616 110.872 25.454C110.926 25.286 110.986 25.121 111.052 24.959L112.906 20.18C112.954 20.06 113.032 19.961 113.14 19.883C113.254 19.805 113.38 19.766 113.518 19.766H115.3ZM120.973 29V21.44L120.172 21.314C119.998 21.278 119.857 21.218 119.749 21.134C119.647 21.044 119.596 20.918 119.596 20.756V19.847H120.973V19.163C120.973 18.635 121.051 18.161 121.207 17.741C121.369 17.321 121.597 16.964 121.891 16.67C122.191 16.376 122.554 16.151 122.98 15.995C123.406 15.839 123.886 15.761 124.42 15.761C124.846 15.761 125.242 15.818 125.608 15.932L125.563 17.048C125.557 17.132 125.533 17.201 125.491 17.255C125.449 17.303 125.392 17.342 125.32 17.372C125.254 17.396 125.176 17.414 125.086 17.426C124.996 17.432 124.9 17.435 124.798 17.435C124.534 17.435 124.297 17.465 124.087 17.525C123.883 17.579 123.709 17.678 123.565 17.822C123.421 17.96 123.31 18.146 123.232 18.38C123.16 18.608 123.124 18.893 123.124 19.235V19.847H125.527V21.431H123.196V29H120.973ZM128.873 21.368C129.161 20.816 129.503 20.384 129.899 20.072C130.295 19.754 130.763 19.595 131.303 19.595C131.729 19.595 132.071 19.688 132.329 19.874L132.185 21.539C132.155 21.647 132.11 21.725 132.05 21.773C131.996 21.815 131.921 21.836 131.825 21.836C131.735 21.836 131.6 21.821 131.42 21.791C131.246 21.761 131.075 21.746 130.907 21.746C130.661 21.746 130.442 21.782 130.25 21.854C130.058 21.926 129.884 22.031 129.728 22.169C129.578 22.301 129.443 22.463 129.323 22.655C129.209 22.847 129.101 23.066 128.999 23.312V29H126.776V19.766H128.081C128.309 19.766 128.468 19.808 128.558 19.892C128.648 19.97 128.708 20.114 128.738 20.324L128.873 21.368ZM135.795 19.766V29H133.563V19.766H135.795ZM136.101 17.075C136.101 17.267 136.062 17.447 135.984 17.615C135.906 17.783 135.801 17.93 135.669 18.056C135.543 18.182 135.393 18.284 135.219 18.362C135.045 18.434 134.859 18.47 134.661 18.47C134.469 18.47 134.286 18.434 134.112 18.362C133.944 18.284 133.797 18.182 133.671 18.056C133.545 17.93 133.443 17.783 133.365 17.615C133.293 17.447 133.257 17.267 133.257 17.075C133.257 16.877 133.293 16.691 133.365 16.517C133.443 16.343 133.545 16.193 133.671 16.067C133.797 15.941 133.944 15.842 134.112 15.77C134.286 15.692 134.469 15.653 134.661 15.653C134.859 15.653 135.045 15.692 135.219 15.77C135.393 15.842 135.543 15.941 135.669 16.067C135.801 16.193 135.906 16.343 135.984 16.517C136.062 16.691 136.101 16.877 136.101 17.075ZM144.01 23.321C144.01 23.033 143.968 22.763 143.884 22.511C143.806 22.253 143.686 22.028 143.524 21.836C143.362 21.644 143.155 21.494 142.903 21.386C142.657 21.272 142.369 21.215 142.039 21.215C141.397 21.215 140.89 21.398 140.518 21.764C140.152 22.13 139.918 22.649 139.816 23.321H144.01ZM139.771 24.662C139.807 25.136 139.891 25.547 140.023 25.895C140.155 26.237 140.329 26.522 140.545 26.75C140.761 26.972 141.016 27.14 141.31 27.254C141.61 27.362 141.94 27.416 142.3 27.416C142.66 27.416 142.969 27.374 143.227 27.29C143.491 27.206 143.719 27.113 143.911 27.011C144.109 26.909 144.28 26.816 144.424 26.732C144.574 26.648 144.718 26.606 144.856 26.606C145.042 26.606 145.18 26.675 145.27 26.813L145.909 27.623C145.663 27.911 145.387 28.154 145.081 28.352C144.775 28.544 144.454 28.7 144.118 28.82C143.788 28.934 143.449 29.015 143.101 29.063C142.759 29.111 142.426 29.135 142.102 29.135C141.46 29.135 140.863 29.03 140.311 28.82C139.759 28.604 139.279 28.289 138.871 27.875C138.463 27.455 138.142 26.939 137.908 26.327C137.674 25.709 137.557 24.995 137.557 24.185C137.557 23.555 137.659 22.964 137.863 22.412C138.067 21.854 138.358 21.371 138.736 20.963C139.12 20.549 139.585 20.222 140.131 19.982C140.683 19.742 141.304 19.622 141.994 19.622C142.576 19.622 143.113 19.715 143.605 19.901C144.097 20.087 144.52 20.36 144.874 20.72C145.228 21.074 145.504 21.512 145.702 22.034C145.906 22.55 146.008 23.141 146.008 23.807C146.008 24.143 145.972 24.371 145.9 24.491C145.828 24.605 145.69 24.662 145.486 24.662H139.771ZM149.755 20.9C149.941 20.714 150.136 20.543 150.34 20.387C150.55 20.225 150.769 20.09 150.997 19.982C151.231 19.868 151.48 19.781 151.744 19.721C152.008 19.655 152.296 19.622 152.608 19.622C153.112 19.622 153.559 19.709 153.949 19.883C154.339 20.051 154.663 20.291 154.921 20.603C155.185 20.909 155.383 21.278 155.515 21.71C155.653 22.136 155.722 22.607 155.722 23.123V29H153.499V23.123C153.499 22.559 153.37 22.124 153.112 21.818C152.854 21.506 152.461 21.35 151.933 21.35C151.549 21.35 151.189 21.437 150.853 21.611C150.517 21.785 150.199 22.022 149.899 22.322V29H147.676V19.766H149.035C149.323 19.766 149.512 19.901 149.602 20.171L149.755 20.9ZM163.632 22.124C163.38 21.818 163.104 21.602 162.804 21.476C162.51 21.35 162.192 21.287 161.85 21.287C161.514 21.287 161.211 21.35 160.941 21.476C160.671 21.602 160.44 21.794 160.248 22.052C160.056 22.304 159.909 22.628 159.807 23.024C159.705 23.414 159.654 23.876 159.654 24.41C159.654 24.95 159.696 25.409 159.78 25.787C159.87 26.159 159.996 26.465 160.158 26.705C160.32 26.939 160.518 27.11 160.752 27.218C160.986 27.32 161.247 27.371 161.535 27.371C161.997 27.371 162.39 27.275 162.714 27.083C163.038 26.891 163.344 26.618 163.632 26.264V22.124ZM165.855 15.626V29H164.496C164.202 29 164.016 28.865 163.938 28.595L163.749 27.704C163.377 28.13 162.948 28.475 162.462 28.739C161.982 29.003 161.421 29.135 160.779 29.135C160.275 29.135 159.813 29.03 159.393 28.82C158.973 28.61 158.61 28.307 158.304 27.911C158.004 27.509 157.77 27.014 157.602 26.426C157.44 25.838 157.359 25.166 157.359 24.41C157.359 23.726 157.452 23.09 157.638 22.502C157.824 21.914 158.091 21.404 158.439 20.972C158.787 20.54 159.204 20.204 159.69 19.964C160.176 19.718 160.722 19.595 161.328 19.595C161.844 19.595 162.285 19.676 162.651 19.838C163.017 20 163.344 20.219 163.632 20.495V15.626H165.855ZM173.683 21.566C173.623 21.662 173.56 21.731 173.494 21.773C173.428 21.809 173.344 21.827 173.242 21.827C173.134 21.827 173.017 21.797 172.891 21.737C172.771 21.677 172.63 21.611 172.468 21.539C172.306 21.461 172.12 21.392 171.91 21.332C171.706 21.272 171.463 21.242 171.181 21.242C170.743 21.242 170.398 21.335 170.146 21.521C169.9 21.707 169.777 21.95 169.777 22.25C169.777 22.448 169.84 22.616 169.966 22.754C170.098 22.886 170.269 23.003 170.479 23.105C170.695 23.207 170.938 23.3 171.208 23.384C171.478 23.462 171.751 23.549 172.027 23.645C172.309 23.741 172.585 23.852 172.855 23.978C173.125 24.098 173.365 24.254 173.575 24.446C173.791 24.632 173.962 24.857 174.088 25.121C174.22 25.385 174.286 25.703 174.286 26.075C174.286 26.519 174.205 26.93 174.043 27.308C173.887 27.68 173.653 28.004 173.341 28.28C173.029 28.55 172.642 28.763 172.18 28.919C171.724 29.069 171.196 29.144 170.596 29.144C170.278 29.144 169.966 29.114 169.66 29.054C169.36 29 169.069 28.922 168.787 28.82C168.511 28.718 168.253 28.598 168.013 28.46C167.779 28.322 167.572 28.172 167.392 28.01L167.905 27.164C167.971 27.062 168.049 26.984 168.139 26.93C168.229 26.876 168.343 26.849 168.481 26.849C168.619 26.849 168.748 26.888 168.868 26.966C168.994 27.044 169.138 27.128 169.3 27.218C169.462 27.308 169.651 27.392 169.867 27.47C170.089 27.548 170.368 27.587 170.704 27.587C170.968 27.587 171.193 27.557 171.379 27.497C171.571 27.431 171.727 27.347 171.847 27.245C171.973 27.143 172.063 27.026 172.117 26.894C172.177 26.756 172.207 26.615 172.207 26.471C172.207 26.255 172.141 26.078 172.009 25.94C171.883 25.802 171.712 25.682 171.496 25.58C171.286 25.478 171.043 25.388 170.767 25.31C170.497 25.226 170.218 25.136 169.93 25.04C169.648 24.944 169.369 24.833 169.093 24.707C168.823 24.575 168.58 24.41 168.364 24.212C168.154 24.014 167.983 23.771 167.851 23.483C167.725 23.195 167.662 22.847 167.662 22.439C167.662 22.061 167.737 21.701 167.887 21.359C168.037 21.017 168.256 20.72 168.544 20.468C168.838 20.21 169.201 20.006 169.633 19.856C170.071 19.7 170.575 19.622 171.145 19.622C171.781 19.622 172.36 19.727 172.882 19.937C173.404 20.147 173.839 20.423 174.187 20.765L173.683 21.566Z" fill="white"/>
</svg>
